<svg xmlns="http://www.w3.org/2000/svg" width="14" height="14" viewBox="0 0 14 14">
    <g transform="translate(-99 -497)">
        <circle cx="7" cy="7" r="7" transform="translate(99 497)" fill="#fff"/>
        <path d="M252,109a7,7,0,1,0,7,7A7,7,0,0,0,252,109Zm.5,3-.024,1.015-.134,4.485h-.683l-.135-4.485L251.5,112Zm-.071,7.813a.733.733,0,0,1-.492.187.678.678,0,0,1-.492-.187.634.634,0,0,1-.206-.473.579.579,0,0,1,.206-.461.659.659,0,0,1,.492-.187.685.685,0,0,1,.492.187.614.614,0,0,1,.194.461A.625.625,0,0,1,252.429,119.813Z"
              transform="translate(-146 388)" fill="#ff4048"/>
    </g>
</svg>
